<svg width="838" height="218" viewBox="0 0 838 218" fill="none" xmlns="http://www.w3.org/2000/svg">
<path d="M549 5C549 2.23857 546.761 0 544 0H523C520.239 0 518 2.23857 518 5V25C518 27.7614 520.239 30 523 30H544C546.761 30 549 27.7614 549 25V5Z" fill="#36AD71"/>
<path d="M374.775 179C374.775 181.761 377.014 184 379.775 184H400C402.761 184 405 181.761 405 179V101.143C406.735 86.3963 418.285 75 432.275 75C446.535 75 458.259 86.84 459.639 102H459.775V179C459.775 179.523 459.855 180.026 460.004 180.5C460.317 201.256 480.119 218 504.5 218C529.077 218 549 200.987 549 180H548.9C548.966 179.677 549 179.342 549 179V52C549 49.2386 546.761 47 544 47H523C520.239 47 518 49.2386 518 52V179C518 179.342 518.034 179.677 518.1 180H517.877C516.964 187.339 511.099 193 504 193C496.901 193 491.036 187.339 490.123 180H489.9C489.935 179.827 489.961 179.651 489.978 179.473C489.984 179.403 489.99 179.332 489.993 179.261C489.995 179.218 489.997 179.175 489.998 179.131C489.999 179.088 490 179.044 490 179V99C490 98.8812 489.996 98.7635 489.988 98.6468C489.996 98.2655 490 97.8832 490 97.5C490 68.505 466.495 45 437.5 45C420.16 45 404.782 53.407 395.223 66.3674C386.079 53.407 371.373 45 354.788 45C338.96 45 324.843 52.6566 315.639 64.6205C315.528 64.5589 315.414 64.5013 315.297 64.4482L314.603 52.705C314.447 50.0628 312.259 48 309.612 48H293C290.239 48 288 50.2386 288 53V179C288 181.761 290.239 184 293 184H313.225C315.986 184 318.225 181.761 318.225 179V102H318.365C319.783 86.84 331.838 75 346.5 75C361.162 75 373.217 86.84 374.635 102H374.775V179Z" fill="#36AD71"/>
<path fill-rule="evenodd" clip-rule="evenodd" d="M762.5 187C779.698 187 795.371 180.03 807.176 168.591L807.895 179.334C808.071 181.96 810.252 184 812.884 184H833C835.761 184 838 181.761 838 179V52C838 49.2386 835.761 47 833 47H815.761C813.095 47 810.898 49.0924 810.767 51.7557L810.052 66.3675C797.979 53.1833 781.135 45 762.5 45C725.773 45 696 76.7878 696 116C696 155.212 725.773 187 762.5 187ZM766.5 158C788.867 158 807 139.196 807 116C807 92.804 788.867 74 766.5 74C744.133 74 726 92.804 726 116C726 139.196 744.133 158 766.5 158Z" fill="#36AD71"/>
<path d="M2 52C2 49.2386 4.23853 47 7 47H109C111.761 47 114 49.2386 114 52V69.189C114.006 69.3608 114.006 69.5327 114 69.7046V70C114 70.6999 113.856 71.3662 113.596 71.9709C113.268 72.9581 112.741 73.8971 112.011 74.7274L39.6418 157H107C110.866 157 114 160.134 114 164V177C114 180.866 110.866 184 107 184H7C3.13403 184 0 180.866 0 177V164C0 162.411 0.529053 160.946 1.4209 159.772C1.66772 159.359 1.95508 158.964 2.28369 158.59L75.812 75H7C4.23853 75 2 72.7614 2 70V52Z" fill="#36AD71"/>
<path d="M164 47C166.761 47 169 49.2386 169 52V129H169.143C170.598 144.16 182.962 156 198 156C213.038 156 225.402 144.16 226.857 129H227V52C227 49.2386 229.239 47 232 47H253C255.761 47 258 49.2386 258 52V178C258 180.761 255.761 183 253 183H235.706C233.062 183 230.875 180.942 230.715 178.302L230.005 166.586C229.878 166.531 229.753 166.47 229.632 166.405C220.192 178.354 205.722 186 189.5 186C161.057 186 138 162.495 138 133.5C138 133.352 138.001 133.203 138.002 133.055C138.004 132.82 138.007 132.585 138.012 132.351C138.004 132.235 138 132.118 138 132V52C138 49.2386 140.239 47 143 47H164Z" fill="#36AD71"/>
<path d="M589 184C586.239 184 584 181.761 584 179V53C584 50.2386 586.239 48 589 48H605.612C608.259 48 610.447 50.0628 610.603 52.7051L611.237 63.4406C619.805 52.1787 632.773 45 647.288 45C659.369 45 670.379 49.9737 678.672 58.136C678.766 58.2542 678.875 58.3755 679 58.5C682.2 61.7 683.31 65 682 67C678.833 71.8333 671.9 81.9 669.5 83.5C667.705 84.6966 665.612 84.1034 664.183 83.3099C658.865 77.6066 651.022 74 642.273 74C628.813 74 617.495 82.5379 614.225 94.1143V179C614.225 181.761 611.986 184 609.225 184H589Z" fill="#36AD71"/>
</svg>
